<svg width="35" height="35" viewBox="0 0 35 35" fill="none" xmlns="http://www.w3.org/2000/svg">
<circle cx="17.908" cy="17.4141" r="17" fill="#EEEEEE"/>
<g opacity="0.3">
<path fill-rule="evenodd" clip-rule="evenodd" d="M20.9357 18.3398L24.3363 19.8855C25.2144 20.2846 25.7781 21.1601 25.7781 22.1246V22.8252C25.7781 24.1835 24.6769 25.2847 23.3186 25.2847H12.4968C11.1385 25.2847 10.0374 24.1835 10.0374 22.8252V22.1246C10.0374 21.1601 10.6011 20.2846 11.4791 19.8855L14.8798 18.3398C13.7286 17.4394 12.9887 16.0376 12.9887 14.4629C12.9887 11.7462 15.191 9.54395 17.9077 9.54395C20.6244 9.54395 22.8267 11.7462 22.8267 14.4629C22.8267 16.0376 22.0868 17.4394 20.9357 18.3398ZM15.9021 18.9553L11.8863 20.7806C11.3595 21.0201 11.0212 21.5454 11.0212 22.1241V22.8247C11.0212 23.6397 11.6819 24.3004 12.4969 24.3004H23.3187C24.1337 24.3004 24.7944 23.6397 24.7944 22.8247V22.1241C24.7944 21.5454 24.4561 21.0201 23.9293 20.7806L19.9135 18.9553C19.301 19.2291 18.6222 19.3814 17.9078 19.3814C17.1934 19.3814 16.5146 19.2291 15.9021 18.9553ZM21.843 14.4623C21.843 16.6356 20.0812 18.3975 17.9078 18.3975C15.7345 18.3975 13.9726 16.6356 13.9726 14.4623C13.9726 12.2889 15.7345 10.5271 17.9078 10.5271C20.0812 10.5271 21.843 12.2889 21.843 14.4623Z" fill="black"/>
</g>
</svg>
